<svg xmlns="http://www.w3.org/2000/svg" viewBox="0 0 1024 1024">
 <g fill="#000302">
  <path d="M1008 1016 l0 -8 8 0 8 0 0 8 0 8 -8 0 -8 0 0 -8z"/>
  <path d="M248.25 718.50 c-5.15 -0.65 -6.55 -1.05 -10 -2.95 -9.65 -5.25 -16.90 -15.55 -17.50 -25.05 -0.20 -2.50 -0.90 -308.45 -0.95 -385.50 0 -15.30 0.40 -19.80 2.35 -25.05 1.70 -4.75 3.35 -7.30 7 -11 5.50 -5.55 10.05 -8 18 -9.70 4.70 -1.05 8.40 -0.95 12.80 0.30 7.50 2.10 13.10 5.75 17.25 11.25 3.15 4.10 4.50 6.60 6.20 11.45 l1.20 3.50 0.20 47.75 c0.10 26.25 0.35 64.70 0.50 85.40 l0.30 37.60 229.95 0 229.95 0 0 -84.45 c0 -93.80 -0.20 -87.45 3.35 -95 2.85 -6 6.80 -10.70 11.05 -13.10 11.05 -6.35 23.50 -6.80 32.85 -1.15 7.15 4.35 14.25 13.35 16.25 20.70 1 3.55 0.75 406.45 -0.20 410.15 -2.60 9.90 -11.45 19.55 -22.25 24.25 -2.80 1.20 -14.40 1.15 -18.05 -0.10 -3.20 -1.10 -8.60 -3.95 -10.75 -5.70 -4.45 -3.60 -10 -12.50 -11.55 -18.40 -0.60 -2.35 -0.70 -15.60 -0.70 -88.95 l0 -86.25 -230.35 0.10 -230.40 0.15 0 85.75 c0 80.35 -0.05 85.95 -0.90 88.75 -2.60 9 -4.75 12.50 -10.85 17.65 -7.55 6.40 -15.45 8.80 -24.75 7.60z"/>
  <path d="M155.75 636.90 c-9 -2.25 -14 -5.10 -19.75 -11.20 -3.65 -3.95 -6.70 -9.80 -7.65 -14.70 -0.85 -4.65 -0.85 -239.70 0 -244.55 1.75 -9.50 8.75 -18.25 18.50 -23.15 4.85 -2.40 10.35 -3.65 14.90 -3.35 2.30 0.15 8.25 1.50 9 2.05 0.30 0.20 1.60 0.70 2.95 1.15 2.90 1 11.05 7.45 12.90 10.25 2.05 3.05 3.90 6.95 5 10.50 1 3.35 1 3.35 0.95 124.80 -0.10 119.20 -0.10 121.55 -1.10 125.15 -1.15 4.45 -5.10 10.75 -9 14.45 -7.25 6.80 -18.80 10.55 -26.70 8.60z"/>
  <path d="M864.40 637.25 c-0.10 -0.15 -1.45 -0.45 -2.95 -0.75 -9.45 -1.75 -19.45 -11.25 -23.25 -22.05 l-1.45 -4.20 -0.15 -120.25 c-0.10 -107.80 -0.05 -120.60 0.65 -123.75 2.35 -10.30 11.10 -20.50 20.90 -24.25 4.75 -1.85 9.55 -2.60 12.75 -2.05 1.55 0.30 3.70 0.65 4.70 0.80 1.05 0.15 4.20 1.45 7 2.85 6.95 3.45 11.85 8.20 14.80 14.40 1.10 2.35 2.25 5.15 2.50 6.25 0.30 1.10 0.75 2.95 1.05 4.05 0.80 3 0.75 237.80 0 241.05 -0.55 2.30 -1.75 6.05 -3.30 10.45 -0.50 1.50 -2.15 3.50 -5.55 6.80 -5.80 5.70 -11.25 8.90 -17.10 10.10 -3.55 0.75 -10.05 1.10 -10.60 0.55z"/>
  <path d="M955.25 588 c-0.55 -0.25 -1.70 -0.45 -2.60 -0.45 -2.25 -0.05 -8.35 -2.35 -12.20 -4.60 -4 -2.30 -8.95 -7.45 -10.90 -11.40 -0.85 -1.60 -1.85 -4.45 -2.30 -6.35 -0.45 -1.90 -1.05 -4.20 -1.35 -5.15 -0.50 -1.65 -0.20 -111.75 0.40 -138.95 0.35 -17.30 1.05 -19.70 8.40 -28.40 1.80 -2.20 6.95 -6.10 9.25 -7.05 3.90 -1.65 14.20 -2.40 19.05 -1.45 8.50 1.75 10.70 2.60 14.05 5.60 5.95 5.30 9.35 10.20 11.15 16.20 2.30 7.60 2.30 6.75 2.30 80.25 l0 69.50 -1.45 5.75 c-2.40 9.70 -5.20 14.25 -11.80 19.25 -6.90 5.20 -18.15 8.90 -22 7.25z"/>
  <path d="M66.50 587.45 c-0.95 -0.30 -2.75 -0.70 -4 -1 -11.90 -2.50 -21.90 -14.80 -23 -28.20 -0.70 -8 -0.85 -143.05 -0.15 -146.85 0.65 -3.80 3.55 -11.20 5.45 -13.95 6.45 -9.30 15.25 -13.95 26.40 -13.95 6.60 0 11.50 1.05 15.15 3.25 8.50 5.10 14.20 13.15 16.60 23.40 0.40 1.65 0.55 23.60 0.55 75.55 0 71.75 0 73.25 -1 77.20 -1 4 -2.95 8.35 -5.60 12.35 -3.05 4.65 -7.75 7.95 -15.60 10.85 -4.40 1.60 -11.55 2.25 -14.80 1.35z"/>
 </g>
</svg>
